# xmcd
#
# Track frame offsets:
#	150
#	13750
#	23702
#	33570
#	42805
#	53804
#	66388
#	78227
#	88242
#	98516
#	109452
#	120989
#	132462
#	143488
#	153856
#	164378
#	173972
#	186046
#	198855
#	212453
#	224043
#	236779
#	247088
#	259221
#	269953
#	282282
#	294748
#	305901
#	315489
#	327755
#
# Disc length: 4499
#
# Revision: 1
# Processed by: cddbd v1.5.1PL0 Copyright (c) Steve Scherf et al.
# Submitted via: EasyCDDAExtractor 4.6.0.1
# Normalized: r0:TDELIM( - )
#
DISCID=c511911e
DTITLE=Various Artist - A Million Dollars Worth Of Doo-Wop  Vol 20
DYEAR=1900
DGENRE=Blues
TTITLE0=Matadors - Pennies From Heaven
TTITLE1=Five Sounds - That's When I Fall In Love
TTITLE2=Supremes - Margie
TTITLE3=Saxons - Rock and Roll Show
TTITLE4=Saxons - Is It Time
TTITLE5=Fabulous Embers (Willie Sanders and the) - Loveable You
TTITLE6=Fabulous Embers (Willie Sanders and the) - Honey Bun
TTITLE7=Golden-Tones - Cryin' The Blues
TTITLE8=Nobletones - I'm Really Too Young
TTITLE9=Metronomes - How Much I Love You
TTITLE10=Metronomes - Dear Don
TTITLE11=Sinceres - If You Should Leave Me
TTITLE12=Chanaclairs - See See Rider
TTITLE13=Metronomes - I Love My Girl
TTITLE14=Metronomes - I'm Gonna Get Me A Girl Somehow
TTITLE15=Fururetones - Roll On
TTITLE16=Futuretones - I Know
TTITLE17=Orchids - Beginning To Miss You
TTITLE18=Orchids - I've Been A Fool From The Start
TTITLE19=Melloharps - Ain't Got The Money
TTITLE20=Chips (Marvin and the) - 16 Tons
TTITLE21=Seniors - I've Got Plenty Of Love
TTITLE22=Climbers - Angels In Heavin Know I Love You
TTITLE23=Monarchs - Wanna Go Home
TTITLE24=Monarchs - Angels In The Sky
TTITLE25=Playboys - So Good
TTITLE26=Playboys - One Question
TTITLE27=Champions - I'm So Blue
TTITLE28=Champions - Cute Little Baby
TTITLE29=Californians - Heavenly Ruby
EXTD=
EXTT0=
EXTT1=
EXTT2=
EXTT3=
EXTT4=
EXTT5=
EXTT6=
EXTT7=
EXTT8=
EXTT9=
EXTT10=
EXTT11=
EXTT12=
EXTT13=
EXTT14=
EXTT15=
EXTT16=
EXTT17=
EXTT18=
EXTT19=
EXTT20=
EXTT21=
EXTT22=
EXTT23=
EXTT24=
EXTT25=
EXTT26=
EXTT27=
EXTT28=
EXTT29=
PLAYORDER=
